<svg width="1920" height="1080" viewBox="0 0 1920 1080" fill="none" xmlns="http://www.w3.org/2000/svg">
<path d="M0 0H1920V1080H0V0Z" fill="black"/>
<path d="M1135 540C1135 636.65 1056.65 715 960 715C863.35 715 785 636.65 785 540C785 443.35 863.35 365 960 365C1056.65 365 1135 443.35 1135 540Z" fill="white"/>
<path d="M922.338 447.179H919.821C919.581 447.179 919.391 447.388 919.409 447.628C921.02 469.373 920.061 483.965 919.375 488.564C917.309 507.483 911.982 518.421 906.366 528.176C900.749 537.931 888.925 547.39 879.761 550.346C870.597 553.302 860.251 553.302 853.747 539.704C847.244 526.106 857.886 509.257 860.251 506.005C862.118 503.437 867.404 497.009 869.909 494.001C869.959 493.941 869.936 493.853 869.865 493.82C857.792 488.287 845.749 490.651 841.332 495.068C826.008 509.213 825.569 531.681 826.836 542.559C826.842 542.619 826.894 542.66 826.954 542.661C836.641 542.679 841.945 545.166 848.012 551.233C855.545 559.819 853.747 572.517 852.27 576.951C850.792 581.385 848.131 587.888 840.741 587.888C833.351 587.888 832.464 582.863 832.464 581.09C832.464 579.316 833.646 576.064 837.489 576.064C840.259 576.064 841.797 578.303 842.363 579.756C842.408 579.871 842.589 579.851 842.613 579.731C845.59 564.853 835.161 562.204 828.428 562.753C828.369 562.758 828.324 562.807 828.322 562.867L827.734 581.09C828.03 607.103 831.864 614.493 833.942 620.11C840.327 637.373 851.777 645.335 856.704 647.306C865.709 650.769 871.877 647 873.998 644.527C874.061 644.454 874.009 644.343 873.912 644.337C867.501 643.934 861.684 638.93 857.886 630.752C854.044 622.475 852.27 608.285 856.704 596.757C861.138 585.228 867.937 584.538 872.076 584.341C896.67 584.578 917.205 604.935 924.398 615.084C937.93 635.383 924.762 643.826 916.741 640.643C916.636 640.601 916.535 640.719 916.592 640.817C922.887 651.712 936.822 650.204 942.725 644.054C949.82 636.664 954.254 630.16 955.141 605.329C955.9 584.097 953.779 564.3 952.204 556.937C952.193 556.884 952.147 556.849 952.092 556.848C939.118 556.658 926.456 566.025 921.738 570.743C924.398 568.674 933.266 565.127 940.952 571.63C949.715 579.045 945.978 592.914 938.883 596.166C931.788 599.417 925.285 598.826 920.259 596.461C915.37 594.161 910.9 588.381 909.325 585.819C897.5 564.063 906.96 541.872 913.167 533.497C923.779 519.643 936.741 514.901 947.952 512.529C948.009 512.517 948.048 512.466 948.046 512.409L946.276 464.029C946.276 451.022 940.096 452.204 930.439 450.135C927.67 449.542 924.48 448.355 923.339 447.579C923.045 447.38 922.692 447.179 922.338 447.179Z" fill="#C3918F"/>
<path d="M887.151 436.242C882.872 434.228 879.419 432.522 876.792 430.812C876.627 430.704 876.409 430.725 876.269 430.865L874.959 432.175C874.827 432.307 874.797 432.507 874.89 432.669C877.36 437.012 883.376 448.155 886.56 466.098C889.125 480.554 886.919 496.582 885.44 503.073C885.417 503.176 885.531 503.249 885.62 503.193C894.056 497.85 899.589 488.737 901.931 475.853C904.146 463.673 900.658 443.716 900.205 441.229C900.177 441.07 900.062 440.947 899.906 440.905C898.656 440.569 892.937 438.965 887.151 436.242Z" fill="#C3918F"/>
<path d="M997.563 447.179H1000.08C1000.32 447.179 1000.51 447.388 1000.49 447.628C998.881 469.373 999.84 483.965 1000.53 488.564C1002.59 507.483 1007.92 518.421 1013.54 528.176C1019.15 537.931 1030.98 547.39 1040.14 550.346C1049.3 553.302 1059.65 553.302 1066.15 539.704C1072.66 526.106 1062.01 509.257 1059.65 506.005C1057.78 503.437 1052.5 497.009 1049.99 494.001C1049.94 493.941 1049.96 493.853 1050.04 493.82C1062.11 488.287 1074.15 490.651 1078.57 495.068C1093.89 509.213 1094.33 531.681 1093.07 542.559C1093.06 542.619 1093.01 542.66 1092.95 542.661C1083.26 542.679 1077.96 545.166 1071.89 551.233C1064.36 559.819 1066.15 572.517 1067.63 576.951C1069.11 581.385 1071.77 587.888 1079.16 587.888C1086.55 587.888 1087.44 582.863 1087.44 581.09C1087.44 579.316 1086.25 576.064 1082.41 576.064C1079.64 576.064 1078.1 578.303 1077.54 579.756C1077.49 579.871 1077.31 579.851 1077.29 579.731C1074.31 564.853 1084.74 562.204 1091.47 562.753C1091.53 562.758 1091.58 562.807 1091.58 562.867L1092.17 581.09C1091.87 607.103 1088.04 614.493 1085.96 620.11C1079.57 637.373 1068.12 645.335 1063.2 647.306C1054.19 650.769 1048.02 647 1045.9 644.527C1045.84 644.454 1045.89 644.343 1045.99 644.337C1052.4 643.934 1058.22 638.93 1062.01 630.752C1065.86 622.475 1067.63 608.285 1063.2 596.757C1058.76 585.228 1051.96 584.538 1047.83 584.341C1023.23 584.578 1002.7 604.935 995.503 615.084C981.97 635.383 995.139 643.826 1003.16 640.643C1003.26 640.601 1003.37 640.719 1003.31 640.817C997.014 651.712 983.079 650.204 977.175 644.054C970.081 636.664 965.646 630.16 964.759 605.329C964.001 584.097 966.122 564.3 967.696 556.937C967.708 556.884 967.754 556.849 967.809 556.848C980.783 556.658 993.445 566.025 998.163 570.743C995.502 568.674 986.634 565.127 978.948 571.63C970.185 579.045 973.923 592.914 981.018 596.166C988.112 599.417 994.616 598.826 999.641 596.461C1004.53 594.161 1009 588.381 1010.58 585.819C1022.4 564.063 1012.94 541.872 1006.73 533.497C996.122 519.643 983.159 514.901 971.948 512.529C971.892 512.517 971.853 512.466 971.855 512.409L973.625 464.029C973.625 451.022 982.296 452.204 991.953 450.135C994.614 449.565 996.053 448.447 996.669 447.672C996.889 447.395 997.208 447.179 997.563 447.179Z" fill="#C3918F"/>
<path d="M1032.75 436.242C1037.03 434.228 1040.48 432.522 1043.11 430.812C1043.27 430.704 1043.49 430.725 1043.63 430.865L1044.94 432.175C1045.07 432.307 1045.1 432.507 1045.01 432.669C1042.54 437.012 1036.52 448.155 1033.34 466.098C1030.78 480.554 1032.98 496.582 1034.46 503.073C1034.48 503.176 1034.37 503.249 1034.28 503.193C1025.84 497.85 1020.31 488.737 1017.97 475.853C1015.75 463.673 1019.24 443.716 1019.7 441.229C1019.72 441.07 1019.84 440.947 1019.99 440.905C1021.24 440.569 1026.96 438.965 1032.75 436.242Z" fill="#C3918F"/>
</svg>
