<svg width="592" height="592" viewBox="0 0 592 592" fill="none" xmlns="http://www.w3.org/2000/svg">
<path d="M592 296C592 459.476 459.476 592 296 592C132.524 592 0 459.476 0 296C0 132.524 132.524 0 296 0C459.476 0 592 132.524 592 296Z" fill="black"/>
<path d="M232.297 139H228.041C227.633 139 227.313 139.353 227.343 139.759C230.067 176.54 228.446 201.22 227.286 209C223.791 241 214.781 259.5 205.281 276C195.781 292.5 175.781 308.5 160.281 313.5C144.781 318.5 127.281 318.5 116.281 295.5C105.281 272.5 123.281 244 127.281 238.5C130.44 234.157 139.381 223.284 143.618 218.196C143.702 218.095 143.663 217.945 143.543 217.89C123.123 208.531 102.752 212.529 95.2814 220C69.3621 243.925 68.6196 281.929 70.7618 300.328C70.7735 300.429 70.8605 300.5 70.9619 300.5C87.347 300.531 96.3189 304.738 106.581 315C119.322 329.522 116.281 351 113.782 358.5C111.283 366 106.782 377 94.2819 377C81.7819 377 80.2819 368.5 80.2819 365.5C80.2819 362.5 82.2819 357 88.7819 357C93.4666 357 96.0681 360.788 97.0252 363.244C97.1007 363.438 97.407 363.406 97.4478 363.201C102.483 338.037 84.8441 333.556 73.456 334.485C73.3551 334.494 73.2789 334.576 73.2757 334.677L72.2814 365.5C72.7814 409.5 79.2677 422 82.7814 431.5C93.5814 460.7 112.949 474.167 121.282 477.5C136.513 483.358 146.946 476.983 150.533 472.8C150.64 472.676 150.552 472.489 150.389 472.479C139.544 471.797 129.705 463.333 123.282 449.5C116.782 435.5 113.782 411.5 121.282 392C128.782 372.5 140.282 371.333 147.282 371C188.882 371.4 223.615 405.833 235.782 423C258.671 457.333 236.397 471.615 222.831 466.231C222.653 466.16 222.483 466.359 222.579 466.525C233.226 484.953 256.796 482.402 266.781 472C278.781 459.5 286.281 448.5 287.782 406.5C289.065 370.587 285.478 337.101 282.814 324.648C282.795 324.558 282.716 324.499 282.624 324.497C260.679 324.176 239.263 340.019 231.282 348C235.782 344.5 250.782 338.5 263.782 349.5C278.604 362.042 272.282 385.5 260.282 391C248.282 396.5 237.281 395.5 228.781 391.5C220.512 387.609 212.951 377.833 210.286 373.5C190.286 336.7 206.286 299.167 216.786 285C234.734 261.568 256.66 253.546 275.622 249.535C275.717 249.514 275.783 249.429 275.78 249.332L272.786 167.5C272.786 145.5 262.333 147.5 246 144C241.315 142.996 235.921 140.989 233.99 139.677C233.494 139.34 232.897 139 232.297 139Z" fill="#C3918F"/>
<path d="M172.781 120.5C165.544 117.094 159.704 114.209 155.26 111.315C154.981 111.133 154.611 111.17 154.375 111.406L152.159 113.622C151.936 113.845 151.886 114.182 152.042 114.457C156.22 121.803 166.397 140.651 171.781 171C176.119 195.452 172.389 222.561 169.887 233.541C169.848 233.715 170.04 233.839 170.191 233.743C184.46 224.707 193.819 209.292 197.781 187.5C201.527 166.898 195.627 133.143 194.861 128.935C194.813 128.668 194.619 128.458 194.356 128.388C192.242 127.82 182.568 125.106 172.781 120.5Z" fill="#C3918F"/>
<path d="M359.535 139H363.791C364.199 139 364.519 139.353 364.489 139.759C361.765 176.54 363.386 201.22 364.546 209C368.041 241 377.051 259.5 386.551 276C396.051 292.5 416.051 308.5 431.551 313.5C447.051 318.5 464.551 318.5 475.551 295.5C486.551 272.5 468.551 244 464.551 238.5C461.392 234.157 452.451 223.284 448.214 218.196C448.13 218.095 448.169 217.945 448.289 217.89C468.709 208.531 489.08 212.529 496.551 220C522.47 243.925 523.212 281.929 521.07 300.328C521.059 300.429 520.972 300.5 520.87 300.5C504.485 300.531 495.513 304.738 485.251 315C472.51 329.522 475.551 351 478.05 358.5C480.549 366 485.05 377 497.55 377C510.05 377 511.55 368.5 511.55 365.5C511.55 362.5 509.55 357 503.05 357C498.365 357 495.764 360.788 494.807 363.244C494.731 363.438 494.425 363.406 494.384 363.201C489.349 338.037 506.988 333.556 518.376 334.485C518.477 334.494 518.553 334.576 518.556 334.677L519.551 365.5C519.051 409.5 512.564 422 509.051 431.5C498.251 460.7 478.883 474.167 470.55 477.5C455.319 483.358 444.886 476.983 441.299 472.8C441.192 472.676 441.28 472.489 441.443 472.479C452.288 471.797 462.127 463.333 468.55 449.5C475.05 435.5 478.05 411.5 470.55 392C463.05 372.5 451.55 371.333 444.55 371C402.95 371.4 368.217 405.833 356.05 423C333.161 457.333 355.435 471.615 369.001 466.231C369.179 466.16 369.349 466.359 369.253 466.525C358.606 484.953 335.036 482.402 325.051 472C313.051 459.5 305.551 448.5 304.05 406.5C302.767 370.587 306.354 337.101 309.018 324.648C309.037 324.558 309.116 324.499 309.208 324.497C331.153 324.176 352.569 340.019 360.55 348C356.05 344.5 341.05 338.5 328.05 349.5C313.228 362.042 319.55 385.5 331.55 391C343.55 396.5 354.551 395.5 363.051 391.5C371.32 387.609 378.881 377.833 381.546 373.5C401.546 336.7 385.546 299.167 375.046 285C357.098 261.568 335.172 253.546 316.21 249.535C316.115 249.514 316.049 249.429 316.052 249.332L319.046 167.5C319.046 145.5 333.713 147.5 350.046 144C354.547 143.036 356.981 141.145 358.022 139.834C358.396 139.365 358.935 139 359.535 139Z" fill="#C3918F"/>
<path d="M419.051 120.5C426.288 117.094 432.128 114.209 436.572 111.315C436.852 111.133 437.221 111.17 437.457 111.406L439.673 113.622C439.896 113.845 439.946 114.182 439.79 114.457C435.612 121.803 425.435 140.651 420.051 171C415.713 195.452 419.443 222.561 421.945 233.541C421.984 233.715 421.792 233.839 421.641 233.743C407.372 224.707 398.013 209.292 394.051 187.5C390.305 166.898 396.205 133.143 396.971 128.935C397.019 128.668 397.213 128.458 397.476 128.388C399.59 127.82 409.264 125.106 419.051 120.5Z" fill="#C3918F"/>
</svg>
