<svg width="400" height="400" viewBox="0 0 400 400" fill="none" xmlns="http://www.w3.org/2000/svg">
<path d="M199.999 0C182.709 0 165.509 2.22282 148.842 6.62196C61.1988 29.7772 0 109.287 0 200C0 290.713 61.2012 370.22 148.842 393.378C165.509 397.777 182.709 400 199.999 400C310.269 400 400 310.271 400 200.003C400 89.7348 310.269 0.00603228 199.999 0.00603228V0ZM17.7755 199.997C17.7755 118.133 72.4885 46.3088 151.11 24.4917C229.734 46.3136 284.444 118.133 284.444 199.997C284.444 281.861 229.731 353.685 151.11 375.502C72.4885 353.68 17.7755 281.861 17.7755 199.997ZM199.999 382.216C195.333 382.216 190.664 381.993 185.998 381.64C255.821 349.417 302.221 278.975 302.221 199.992C302.221 121.009 255.82 50.5734 185.998 18.3517C190.664 17.9951 195.333 17.7719 199.999 17.7719C300.491 17.7719 382.222 99.5009 382.222 199.991C382.222 300.482 300.491 382.211 199.999 382.211V382.216Z" fill="white"/>
<path d="M17.7755 199.997C17.7755 118.133 72.4885 46.3088 151.11 24.4917C229.734 46.3136 284.444 118.133 284.444 199.997C284.444 281.861 229.731 353.685 151.11 375.502C72.4885 353.68 17.7755 281.861 17.7755 199.997Z" fill="white"/>
</svg>
